<?xml version="1.0" encoding="UTF-8" standalone="no"?>
<!DOCTYPE svg PUBLIC "-//W3C//DTD SVG 1.1//EN" "http://www.w3.org/Graphics/SVG/1.1/DTD/svg11.dtd">
<svg width="100%" height="100%" viewBox="0 0 115 115" version="1.1" xmlns="http://www.w3.org/2000/svg" xmlns:xlink="http://www.w3.org/1999/xlink" xml:space="preserve" xmlns:serif="http://www.serif.com/" style="fill-rule:evenodd;clip-rule:evenodd;stroke-linejoin:round;stroke-miterlimit:2;">
    <g>
        <g transform="matrix(0.558955,0,0,0.558955,56.2095,67.1468)">
            <g transform="matrix(83.4168,0,0,83.4168,-100.335,0)">
                <path d="M0.736,-0.659C0.752,-0.651 0.76,-0.642 0.76,-0.633C0.76,-0.628 0.757,-0.623 0.75,-0.618C0.712,-0.59 0.676,-0.557 0.643,-0.52C0.607,-0.479 0.573,-0.403 0.541,-0.293C0.555,-0.302 0.567,-0.312 0.577,-0.322C0.585,-0.33 0.593,-0.334 0.603,-0.334C0.612,-0.334 0.616,-0.33 0.617,-0.322C0.617,-0.313 0.61,-0.302 0.596,-0.29C0.582,-0.276 0.558,-0.257 0.525,-0.23C0.506,-0.165 0.489,-0.116 0.475,-0.083C0.455,-0.039 0.432,-0.004 0.406,0.021C0.384,0.04 0.355,0.057 0.319,0.071C0.279,0.085 0.239,0.093 0.199,0.093C0.144,0.093 0.1,0.078 0.065,0.05C0.02,0.012 -0.003,-0.028 -0.003,-0.073C-0.003,-0.098 0.005,-0.126 0.021,-0.155C0.028,-0.168 0.04,-0.18 0.057,-0.19C0.073,-0.199 0.09,-0.204 0.107,-0.204C0.133,-0.204 0.153,-0.193 0.166,-0.17C0.174,-0.156 0.178,-0.143 0.178,-0.131C0.178,-0.103 0.158,-0.082 0.119,-0.067C0.112,-0.065 0.109,-0.057 0.109,-0.043C0.109,-0.026 0.115,-0.012 0.128,0C0.141,0.011 0.156,0.017 0.172,0.017C0.219,0.017 0.272,-0.028 0.329,-0.119C0.346,-0.145 0.361,-0.172 0.373,-0.197C0.33,-0.204 0.294,-0.223 0.266,-0.252C0.236,-0.284 0.22,-0.322 0.22,-0.368C0.218,-0.451 0.26,-0.525 0.344,-0.589C0.425,-0.651 0.513,-0.681 0.609,-0.681C0.664,-0.681 0.706,-0.674 0.736,-0.659ZM0.399,-0.256C0.415,-0.293 0.43,-0.331 0.446,-0.368C0.465,-0.41 0.488,-0.446 0.514,-0.476C0.575,-0.551 0.623,-0.6 0.657,-0.623C0.638,-0.634 0.614,-0.64 0.584,-0.64C0.527,-0.64 0.472,-0.617 0.421,-0.573C0.362,-0.521 0.33,-0.456 0.325,-0.376C0.323,-0.345 0.33,-0.319 0.345,-0.297C0.358,-0.277 0.376,-0.264 0.399,-0.256Z" style="fill:rgb(246,243,234);fill-rule:nonzero;"/>
            </g>
            <g transform="matrix(83.4168,0,0,83.4168,-54.0089,0)">
                <path d="M0.389,-0.399C0.401,-0.423 0.407,-0.436 0.407,-0.436C0.417,-0.457 0.428,-0.469 0.442,-0.473C0.452,-0.475 0.467,-0.466 0.487,-0.444C0.504,-0.426 0.512,-0.409 0.512,-0.393C0.512,-0.381 0.505,-0.362 0.491,-0.336C0.475,-0.305 0.451,-0.259 0.419,-0.199C0.407,-0.176 0.401,-0.157 0.401,-0.142C0.401,-0.131 0.403,-0.125 0.407,-0.123C0.412,-0.12 0.425,-0.128 0.447,-0.146C0.467,-0.162 0.483,-0.178 0.495,-0.191C0.503,-0.2 0.507,-0.204 0.509,-0.204C0.513,-0.204 0.517,-0.201 0.522,-0.195C0.527,-0.189 0.529,-0.184 0.529,-0.18C0.529,-0.174 0.525,-0.167 0.517,-0.159C0.509,-0.151 0.501,-0.142 0.493,-0.133C0.48,-0.119 0.457,-0.098 0.424,-0.07C0.391,-0.042 0.369,-0.025 0.358,-0.017C0.337,-0.005 0.317,0.002 0.298,0.002C0.283,0.002 0.269,-0.003 0.256,-0.011C0.244,-0.02 0.238,-0.034 0.238,-0.052C0.238,-0.061 0.239,-0.071 0.242,-0.082C0.208,-0.053 0.18,-0.033 0.158,-0.02C0.136,-0.007 0.113,-0.001 0.091,-0.001C0.068,-0.001 0.05,-0.008 0.035,-0.022C0.021,-0.036 0.014,-0.054 0.014,-0.075C0.014,-0.097 0.019,-0.12 0.031,-0.143C0.018,-0.142 0.009,-0.143 0.005,-0.147C0.002,-0.15 0,-0.159 0,-0.175C0,-0.179 0.005,-0.185 0.016,-0.195C0.026,-0.205 0.037,-0.214 0.046,-0.223C0.061,-0.236 0.084,-0.26 0.115,-0.297C0.134,-0.323 0.151,-0.344 0.165,-0.358C0.192,-0.382 0.223,-0.399 0.258,-0.409C0.273,-0.414 0.291,-0.417 0.309,-0.417C0.343,-0.417 0.369,-0.411 0.389,-0.399ZM0.196,-0.119C0.209,-0.119 0.227,-0.131 0.251,-0.156C0.27,-0.175 0.285,-0.194 0.298,-0.213C0.327,-0.257 0.341,-0.291 0.341,-0.313C0.341,-0.328 0.335,-0.335 0.323,-0.335C0.307,-0.335 0.276,-0.304 0.231,-0.241C0.197,-0.193 0.18,-0.159 0.18,-0.139C0.18,-0.126 0.185,-0.119 0.196,-0.119Z" style="fill:rgb(246,243,234);fill-rule:nonzero;"/>
            </g>
            <g transform="matrix(83.4168,0,0,83.4168,-14.0416,0)">
                <path d="M0.009,-0.144C0.002,-0.144 -0.002,-0.147 -0.002,-0.152C-0.002,-0.156 0.001,-0.164 0.007,-0.173C0.039,-0.212 0.078,-0.262 0.124,-0.323C0.169,-0.392 0.199,-0.425 0.215,-0.421C0.226,-0.419 0.237,-0.412 0.248,-0.4C0.259,-0.389 0.266,-0.377 0.269,-0.367C0.274,-0.343 0.274,-0.322 0.269,-0.303C0.266,-0.292 0.254,-0.273 0.235,-0.244C0.256,-0.265 0.276,-0.283 0.294,-0.299C0.337,-0.339 0.369,-0.364 0.389,-0.377C0.403,-0.385 0.416,-0.394 0.43,-0.402C0.444,-0.41 0.456,-0.415 0.466,-0.415C0.483,-0.415 0.498,-0.404 0.514,-0.384C0.516,-0.38 0.517,-0.376 0.517,-0.37C0.517,-0.356 0.503,-0.321 0.475,-0.267C0.435,-0.191 0.415,-0.146 0.415,-0.132C0.415,-0.126 0.417,-0.123 0.422,-0.123C0.438,-0.123 0.462,-0.138 0.495,-0.166C0.495,-0.167 0.502,-0.175 0.515,-0.19C0.523,-0.2 0.53,-0.205 0.535,-0.205C0.544,-0.205 0.548,-0.199 0.548,-0.186C0.548,-0.175 0.541,-0.162 0.526,-0.145C0.511,-0.129 0.485,-0.105 0.449,-0.074C0.408,-0.039 0.38,-0.019 0.365,-0.012C0.35,-0.006 0.335,-0.003 0.319,-0.003C0.283,-0.003 0.264,-0.016 0.26,-0.044C0.255,-0.07 0.283,-0.139 0.342,-0.25C0.345,-0.254 0.346,-0.257 0.346,-0.26C0.346,-0.263 0.344,-0.265 0.339,-0.265C0.329,-0.265 0.318,-0.259 0.306,-0.247C0.294,-0.235 0.272,-0.21 0.239,-0.172C0.201,-0.127 0.174,-0.095 0.16,-0.074C0.145,-0.054 0.127,-0.036 0.105,-0.02C0.083,-0.005 0.064,0.003 0.048,0.003C0.026,0.003 0.015,-0.008 0.015,-0.031C0.015,-0.041 0.02,-0.054 0.03,-0.07C0.045,-0.095 0.053,-0.108 0.054,-0.11C0.064,-0.132 0.091,-0.185 0.133,-0.27C0.063,-0.186 0.021,-0.144 0.009,-0.144Z" style="fill:rgb(246,243,234);fill-rule:nonzero;"/>
            </g>
            <g transform="matrix(83.4168,0,0,83.4168,27.8939,0)">
                <path d="M0.103,0.033C0.118,0.025 0.143,0.015 0.178,0.002C0.184,-0.011 0.187,-0.019 0.187,-0.021C0.157,-0.006 0.128,0.001 0.101,0.001C0.064,0.001 0.039,-0.01 0.025,-0.031C0.019,-0.041 0.015,-0.057 0.015,-0.077C0.015,-0.116 0.024,-0.144 0.04,-0.161C0.029,-0.153 0.019,-0.149 0.01,-0.148C0.001,-0.154 -0.004,-0.16 -0.004,-0.167C-0.004,-0.171 -0.002,-0.174 0.001,-0.178C0.014,-0.195 0.037,-0.222 0.069,-0.259C0.114,-0.308 0.142,-0.337 0.152,-0.347C0.201,-0.39 0.242,-0.412 0.275,-0.412C0.343,-0.412 0.377,-0.401 0.377,-0.38C0.402,-0.443 0.423,-0.474 0.441,-0.474C0.452,-0.474 0.464,-0.463 0.478,-0.442C0.484,-0.433 0.49,-0.425 0.496,-0.416C0.504,-0.404 0.506,-0.394 0.505,-0.386C0.476,-0.326 0.428,-0.223 0.359,-0.077C0.38,-0.09 0.396,-0.103 0.407,-0.113C0.448,-0.155 0.471,-0.178 0.475,-0.181C0.491,-0.196 0.503,-0.204 0.511,-0.204C0.522,-0.204 0.527,-0.198 0.527,-0.186C0.527,-0.176 0.521,-0.163 0.507,-0.148C0.462,-0.098 0.403,-0.053 0.329,-0.014C0.253,0.151 0.18,0.242 0.111,0.259C0.085,0.265 0.061,0.268 0.039,0.268C0.003,0.268 -0.025,0.259 -0.045,0.243C-0.065,0.226 -0.074,0.202 -0.071,0.171C-0.068,0.139 -0.047,0.112 -0.008,0.088C0.029,0.07 0.066,0.051 0.103,0.033ZM0.233,-0.256C0.196,-0.195 0.177,-0.158 0.177,-0.144C0.177,-0.139 0.181,-0.134 0.19,-0.131C0.195,-0.129 0.2,-0.128 0.205,-0.128C0.23,-0.128 0.259,-0.156 0.289,-0.211C0.32,-0.265 0.335,-0.301 0.335,-0.318C0.335,-0.324 0.332,-0.329 0.326,-0.331C0.323,-0.333 0.319,-0.334 0.315,-0.334C0.292,-0.334 0.265,-0.308 0.233,-0.256ZM0.098,0.167C0.116,0.137 0.133,0.103 0.152,0.064C0.097,0.086 0.061,0.113 0.044,0.146C0.036,0.163 0.032,0.177 0.032,0.189C0.032,0.204 0.037,0.211 0.048,0.211C0.064,0.211 0.081,0.197 0.098,0.167Z" style="fill:rgb(246,243,234);fill-rule:nonzero;"/>
            </g>
            <g transform="matrix(83.4168,0,0,83.4168,67.4828,0)">
                <path d="M0.437,-0.205C0.447,-0.201 0.452,-0.197 0.452,-0.191C0.452,-0.184 0.447,-0.175 0.437,-0.164C0.407,-0.123 0.371,-0.101 0.33,-0.098C0.317,-0.097 0.306,-0.099 0.297,-0.103C0.243,-0.033 0.184,0.002 0.119,0.002C0.088,0.002 0.064,-0.008 0.045,-0.028C0.027,-0.048 0.018,-0.075 0.018,-0.109C0.018,-0.123 0.02,-0.139 0.024,-0.154C0.021,-0.152 0.018,-0.151 0.015,-0.151C0.002,-0.151 -0.004,-0.157 -0.004,-0.169C-0.004,-0.175 -0.001,-0.181 0.004,-0.186C0.033,-0.224 0.065,-0.26 0.1,-0.297C0.153,-0.354 0.2,-0.392 0.241,-0.411C0.264,-0.422 0.287,-0.427 0.309,-0.427C0.35,-0.427 0.377,-0.407 0.391,-0.365C0.394,-0.356 0.396,-0.345 0.396,-0.333C0.396,-0.292 0.381,-0.242 0.35,-0.182C0.358,-0.178 0.361,-0.17 0.361,-0.157C0.382,-0.162 0.398,-0.175 0.41,-0.196C0.419,-0.205 0.428,-0.208 0.437,-0.205ZM0.181,-0.09C0.185,-0.088 0.189,-0.087 0.193,-0.087C0.213,-0.087 0.23,-0.104 0.245,-0.139C0.237,-0.153 0.233,-0.167 0.233,-0.181C0.233,-0.19 0.235,-0.198 0.238,-0.205C0.246,-0.225 0.265,-0.232 0.297,-0.227C0.32,-0.272 0.332,-0.306 0.332,-0.328C0.332,-0.345 0.324,-0.354 0.308,-0.354C0.283,-0.354 0.251,-0.316 0.21,-0.24C0.178,-0.184 0.162,-0.144 0.162,-0.122C0.162,-0.106 0.168,-0.095 0.181,-0.09Z" style="fill:rgb(246,243,234);fill-rule:nonzero;"/>
            </g>
        </g>
        <g transform="matrix(0.558955,0,0,0.558955,42.3053,77.2823)">
            <g transform="matrix(12.9998,0,0,12.9998,-41.6447,0)">
                <path d="M0.671,-0.125C0.654,-0.106 0.634,-0.089 0.613,-0.072C0.592,-0.055 0.568,-0.04 0.543,-0.027C0.518,-0.014 0.49,-0.003 0.461,0.005C0.432,0.012 0.401,0.016 0.368,0.016C0.315,0.016 0.266,0.008 0.223,-0.009C0.18,-0.025 0.143,-0.049 0.112,-0.08C0.081,-0.111 0.058,-0.148 0.041,-0.193C0.024,-0.237 0.015,-0.287 0.015,-0.343C0.015,-0.4 0.025,-0.452 0.044,-0.498C0.063,-0.543 0.088,-0.582 0.118,-0.614C0.148,-0.645 0.181,-0.669 0.217,-0.686C0.252,-0.703 0.286,-0.711 0.319,-0.711C0.344,-0.711 0.365,-0.708 0.384,-0.702C0.402,-0.696 0.417,-0.689 0.43,-0.682C0.443,-0.674 0.452,-0.666 0.46,-0.659C0.467,-0.651 0.471,-0.646 0.473,-0.643L0.496,-0.699L0.653,-0.699L0.653,-0.415L0.474,-0.415C0.473,-0.431 0.471,-0.447 0.466,-0.462C0.461,-0.477 0.455,-0.491 0.447,-0.503C0.438,-0.514 0.428,-0.524 0.415,-0.531C0.402,-0.538 0.386,-0.541 0.368,-0.541C0.35,-0.541 0.334,-0.536 0.319,-0.526C0.304,-0.515 0.292,-0.501 0.282,-0.483C0.271,-0.465 0.263,-0.444 0.258,-0.42C0.252,-0.396 0.249,-0.37 0.249,-0.343C0.249,-0.318 0.252,-0.295 0.259,-0.272C0.265,-0.249 0.274,-0.229 0.287,-0.212C0.299,-0.195 0.314,-0.181 0.332,-0.171C0.35,-0.16 0.371,-0.155 0.395,-0.155C0.416,-0.155 0.435,-0.16 0.454,-0.169C0.473,-0.178 0.489,-0.189 0.503,-0.201C0.517,-0.212 0.529,-0.223 0.538,-0.234C0.547,-0.244 0.552,-0.25 0.554,-0.253L0.671,-0.125Z" style="fill:rgb(234,228,206);fill-rule:nonzero;"/>
            </g>
            <g transform="matrix(12.9998,0,0,12.9998,-32.7269,0)">
                <path d="M0.025,-0.699L0.349,-0.699L0.349,-0.567L0.287,-0.567L0.287,-0.416L0.477,-0.416L0.477,-0.567L0.418,-0.567L0.418,-0.699L0.743,-0.699L0.743,-0.567L0.685,-0.567L0.685,-0.132L0.743,-0.132L0.743,0L0.418,0L0.418,-0.132L0.477,-0.132L0.477,-0.283L0.287,-0.283L0.287,-0.132L0.349,-0.132L0.349,0L0.025,0L0.025,-0.132L0.08,-0.132L0.08,-0.567L0.025,-0.567L0.025,-0.699Z" style="fill:rgb(234,228,206);fill-rule:nonzero;"/>
            </g>
            <g transform="matrix(12.9998,0,0,12.9998,-22.7431,0)">
                <path d="M0.373,0.018C0.321,0.018 0.273,0.01 0.229,-0.005C0.185,-0.02 0.147,-0.043 0.116,-0.074C0.084,-0.105 0.059,-0.143 0.042,-0.19C0.024,-0.236 0.015,-0.29 0.015,-0.353C0.015,-0.407 0.024,-0.456 0.041,-0.501C0.058,-0.546 0.082,-0.584 0.113,-0.617C0.143,-0.649 0.181,-0.674 0.224,-0.692C0.267,-0.709 0.314,-0.718 0.366,-0.718C0.427,-0.718 0.481,-0.709 0.526,-0.692C0.571,-0.674 0.608,-0.649 0.638,-0.617C0.667,-0.584 0.689,-0.545 0.704,-0.499C0.718,-0.453 0.725,-0.402 0.725,-0.346C0.725,-0.289 0.717,-0.239 0.702,-0.194C0.687,-0.149 0.664,-0.11 0.634,-0.079C0.604,-0.048 0.567,-0.024 0.524,-0.007C0.48,0.01 0.43,0.018 0.373,0.018ZM0.373,-0.139C0.389,-0.139 0.403,-0.144 0.416,-0.154C0.428,-0.164 0.439,-0.178 0.448,-0.196C0.456,-0.214 0.463,-0.236 0.468,-0.261C0.473,-0.286 0.475,-0.315 0.475,-0.346C0.475,-0.377 0.473,-0.405 0.469,-0.432C0.464,-0.458 0.458,-0.481 0.449,-0.501C0.44,-0.52 0.428,-0.536 0.414,-0.547C0.4,-0.558 0.383,-0.564 0.364,-0.564C0.349,-0.564 0.335,-0.559 0.323,-0.549C0.31,-0.538 0.3,-0.524 0.291,-0.505C0.282,-0.486 0.275,-0.464 0.27,-0.438C0.265,-0.412 0.262,-0.384 0.262,-0.353C0.262,-0.32 0.265,-0.291 0.271,-0.265C0.276,-0.238 0.284,-0.216 0.294,-0.197C0.303,-0.178 0.315,-0.164 0.329,-0.154C0.342,-0.144 0.357,-0.139 0.373,-0.139Z" style="fill:rgb(234,228,206);fill-rule:nonzero;"/>
            </g>
            <g transform="matrix(12.9998,0,0,12.9998,-13.1233,0)">
                <path d="M0.671,-0.125C0.654,-0.106 0.634,-0.089 0.613,-0.072C0.592,-0.055 0.568,-0.04 0.543,-0.027C0.518,-0.014 0.49,-0.003 0.461,0.005C0.432,0.012 0.401,0.016 0.368,0.016C0.315,0.016 0.266,0.008 0.223,-0.009C0.18,-0.025 0.143,-0.049 0.112,-0.08C0.081,-0.111 0.058,-0.148 0.041,-0.193C0.024,-0.237 0.015,-0.287 0.015,-0.343C0.015,-0.4 0.025,-0.452 0.044,-0.498C0.063,-0.543 0.088,-0.582 0.118,-0.614C0.148,-0.645 0.181,-0.669 0.217,-0.686C0.252,-0.703 0.286,-0.711 0.319,-0.711C0.344,-0.711 0.365,-0.708 0.384,-0.702C0.402,-0.696 0.417,-0.689 0.43,-0.682C0.443,-0.674 0.452,-0.666 0.46,-0.659C0.467,-0.651 0.471,-0.646 0.473,-0.643L0.496,-0.699L0.653,-0.699L0.653,-0.415L0.474,-0.415C0.473,-0.431 0.471,-0.447 0.466,-0.462C0.461,-0.477 0.455,-0.491 0.447,-0.503C0.438,-0.514 0.428,-0.524 0.415,-0.531C0.402,-0.538 0.386,-0.541 0.368,-0.541C0.35,-0.541 0.334,-0.536 0.319,-0.526C0.304,-0.515 0.292,-0.501 0.282,-0.483C0.271,-0.465 0.263,-0.444 0.258,-0.42C0.252,-0.396 0.249,-0.37 0.249,-0.343C0.249,-0.318 0.252,-0.295 0.259,-0.272C0.265,-0.249 0.274,-0.229 0.287,-0.212C0.299,-0.195 0.314,-0.181 0.332,-0.171C0.35,-0.16 0.371,-0.155 0.395,-0.155C0.416,-0.155 0.435,-0.16 0.454,-0.169C0.473,-0.178 0.489,-0.189 0.503,-0.201C0.517,-0.212 0.529,-0.223 0.538,-0.234C0.547,-0.244 0.552,-0.25 0.554,-0.253L0.671,-0.125Z" style="fill:rgb(234,228,206);fill-rule:nonzero;"/>
            </g>
            <g transform="matrix(12.9998,0,0,12.9998,-4.20542,0)">
                <path d="M0.373,0.018C0.321,0.018 0.273,0.01 0.229,-0.005C0.185,-0.02 0.147,-0.043 0.116,-0.074C0.084,-0.105 0.059,-0.143 0.042,-0.19C0.024,-0.236 0.015,-0.29 0.015,-0.353C0.015,-0.407 0.024,-0.456 0.041,-0.501C0.058,-0.546 0.082,-0.584 0.113,-0.617C0.143,-0.649 0.181,-0.674 0.224,-0.692C0.267,-0.709 0.314,-0.718 0.366,-0.718C0.427,-0.718 0.481,-0.709 0.526,-0.692C0.571,-0.674 0.608,-0.649 0.638,-0.617C0.667,-0.584 0.689,-0.545 0.704,-0.499C0.718,-0.453 0.725,-0.402 0.725,-0.346C0.725,-0.289 0.717,-0.239 0.702,-0.194C0.687,-0.149 0.664,-0.11 0.634,-0.079C0.604,-0.048 0.567,-0.024 0.524,-0.007C0.48,0.01 0.43,0.018 0.373,0.018ZM0.373,-0.139C0.389,-0.139 0.403,-0.144 0.416,-0.154C0.428,-0.164 0.439,-0.178 0.448,-0.196C0.456,-0.214 0.463,-0.236 0.468,-0.261C0.473,-0.286 0.475,-0.315 0.475,-0.346C0.475,-0.377 0.473,-0.405 0.469,-0.432C0.464,-0.458 0.458,-0.481 0.449,-0.501C0.44,-0.52 0.428,-0.536 0.414,-0.547C0.4,-0.558 0.383,-0.564 0.364,-0.564C0.349,-0.564 0.335,-0.559 0.323,-0.549C0.31,-0.538 0.3,-0.524 0.291,-0.505C0.282,-0.486 0.275,-0.464 0.27,-0.438C0.265,-0.412 0.262,-0.384 0.262,-0.353C0.262,-0.32 0.265,-0.291 0.271,-0.265C0.276,-0.238 0.284,-0.216 0.294,-0.197C0.303,-0.178 0.315,-0.164 0.329,-0.154C0.342,-0.144 0.357,-0.139 0.373,-0.139Z" style="fill:rgb(234,228,206);fill-rule:nonzero;"/>
            </g>
            <g transform="matrix(12.9998,0,0,12.9998,5.4144,0)">
                <path d="M0.025,-0.699L0.341,-0.699L0.341,-0.567L0.288,-0.567L0.288,-0.133L0.417,-0.133L0.417,-0.26L0.585,-0.26L0.585,0L0.025,0L0.025,-0.133L0.08,-0.133L0.08,-0.567L0.025,-0.567L0.025,-0.699Z" style="fill:rgb(234,228,206);fill-rule:nonzero;"/>
            </g>
            <g transform="matrix(12.9998,0,0,12.9998,13.3443,0)">
                <path d="M0.808,0L0.407,0L0.407,-0.131L0.502,-0.131L0.481,-0.199L0.276,-0.199L0.255,-0.131L0.333,-0.131L0.333,0L0.015,0L0.015,-0.131L0.083,-0.131L0.218,-0.57L0.177,-0.57L0.177,-0.699L0.561,-0.699L0.738,-0.131L0.808,-0.131L0.808,0ZM0.313,-0.319L0.444,-0.319L0.378,-0.535L0.313,-0.319Z" style="fill:rgb(234,228,206);fill-rule:nonzero;"/>
            </g>
            <g transform="matrix(12.9998,0,0,12.9998,24.0431,0)">
                <path d="M0.686,-0.699L0.686,-0.439L0.539,-0.439L0.539,-0.567L0.455,-0.567L0.455,-0.133L0.538,-0.133L0.538,0L0.166,0L0.166,-0.133L0.248,-0.133L0.248,-0.567L0.162,-0.567L0.162,-0.439L0.015,-0.439L0.015,-0.699L0.686,-0.699Z" style="fill:rgb(234,228,206);fill-rule:nonzero;"/>
            </g>
            <g transform="matrix(12.9998,0,0,12.9998,33.1559,0)">
                <path d="M0.025,-0.699L0.628,-0.699L0.628,-0.478L0.455,-0.478L0.455,-0.567L0.295,-0.567L0.295,-0.429L0.485,-0.429L0.485,-0.296L0.295,-0.296L0.295,-0.133L0.455,-0.133L0.455,-0.226L0.628,-0.226L0.628,0L0.025,0L0.025,-0.133L0.088,-0.133L0.088,-0.567L0.025,-0.567L0.025,-0.699Z" style="fill:rgb(234,228,206);fill-rule:nonzero;"/>
            </g>
        </g>
    </g>
</svg>
